<svg width="37" height="45" viewBox="0 0 37 45" fill="none" xmlns="http://www.w3.org/2000/svg">
    <path d="M36.5335 9.57168C36.3948 9.45838 36.2285 9.38557 36.0522 9.36106C35.876 9.33655 35.6966 9.36125 35.5331 9.43253L19.6124 16.4455C18.9202 16.7523 18.0533 16.8981 17.1633 16.8981C15.9223 16.9032 14.6384 16.6098 13.7435 16.2107C13.4708 16.0939 13.2111 15.9478 12.9689 15.7749C13.0348 15.7413 13.1172 15.7044 13.2079 15.6676L27.6881 9.29002L29.8471 10.2289V7.4844C29.8504 7.28868 29.8101 7.09474 29.7294 6.91708C29.6486 6.73941 29.5294 6.5826 29.3807 6.45836C29.2426 6.34518 29.0768 6.27242 28.9012 6.24791C28.7255 6.22339 28.5466 6.24804 28.3836 6.31921L12.4629 13.3321C11.9718 13.5333 11.5499 13.7815 11.1939 14.1419C10.7817 14.5556 10.5476 15.1187 10.5429 15.7078C10.5429 15.7246 10.5479 15.7531 10.5479 15.7531V40.4484L10.5446 40.4819C10.5446 40.4886 10.5495 40.492 10.5495 40.4987V40.5255H10.5528C10.5858 41.3889 11.0143 41.9388 11.423 42.3278C12.7085 43.4812 14.8675 44.1267 17.165 44.1602C18.2527 44.1602 19.357 43.9926 20.3788 43.5466L36.3044 36.532C36.7247 36.3476 36.9999 35.8899 36.9999 35.3718V10.5977C37.0024 10.4021 36.9619 10.2084 36.8811 10.0309C36.8004 9.8533 36.6816 9.6964 36.5335 9.57168V9.57168ZM26.4356 4.87739C26.4075 4.50855 26.2576 4.15648 25.9906 3.94524C25.8519 3.83193 25.6855 3.75913 25.5093 3.73462C25.3331 3.7101 25.1536 3.73481 24.9902 3.80608L9.0695 10.8157C8.3773 11.1208 7.50875 11.2683 6.62042 11.2683C5.3794 11.2717 4.09553 10.9783 3.20061 10.5776C2.92762 10.4627 2.66786 10.3177 2.42601 10.1451C2.49193 10.1115 2.57434 10.0746 2.66498 10.0378L17.1469 3.66023L19.3059 4.59908V1.85795C19.3088 1.66212 19.2682 1.46814 19.1872 1.29048C19.1061 1.11282 18.9867 0.956069 18.8378 0.831915C18.6994 0.718757 18.5333 0.646028 18.3574 0.621516C18.1815 0.597004 18.0023 0.621632 17.8391 0.692763L1.91839 7.70738C1.42726 7.90856 1.00699 8.15501 0.649352 8.51714C0.237725 8.93112 0.00421635 9.49421 0 10.083C0 10.1031 0.00494395 10.13 0.00494395 10.13V34.9041H0.0082407C0.0412027 35.7675 0.469709 36.3174 0.878438 36.7064C2.16396 37.8598 4.32297 38.5036 6.62207 38.5371C7.24644 38.5334 7.8688 38.4649 8.47948 38.3326V15.7514C8.463 14.5778 8.92447 13.4512 9.73534 12.6397C10.2971 12.0854 10.9646 11.654 11.6966 11.3723L26.4356 4.87739V4.87739Z" fill="#50C6F9"/>
</svg>


